M48
; DRILL file {KiCad (6.0.5)} date Wed Jun 19 12:05:00 2024
; FORMAT={-:-/ absolute / inch / decimal}
; #@! TF.CreationDate,2024-06-19T12:05:00-03:00
; #@! TF.GenerationSoftware,Kicad,Pcbnew,(6.0.5)
; #@! TF.FileFunction,Plated,1,2,PTH
FMAT,2
INCH
; #@! TA.AperFunction,Plated,PTH,ComponentDrill
T1C0.0315
; #@! TA.AperFunction,Plated,PTH,ComponentDrill
T2C0.0394
; #@! TA.AperFunction,Plated,PTH,ComponentDrill
T3C0.0433
; #@! TA.AperFunction,Plated,PTH,ComponentDrill
T4C0.0598
%
G90
G05
T1
X5.8094Y-5.5529
X5.8094Y-5.7498
X6.0094Y-5.5529
X6.0094Y-5.7498
X7.38Y-4.44
X7.38Y-4.84
X7.6Y-4.84
X7.6Y-5.24
X7.74Y-4.84
X7.74Y-5.24
X8.5Y-5.55
X8.6969Y-5.55
T2
X6.5906Y-5.2884
X6.6906Y-5.2884
X6.7906Y-5.2884
X6.8906Y-5.2884
X7.5984Y-5.65
X7.5984Y-5.75
X7.6Y-4.05
X7.6Y-4.3819
X7.6Y-5.4
X7.7Y-4.05
X7.7Y-4.3819
X7.7Y-5.4
X7.7559Y-5.65
X7.7559Y-5.75
X7.8Y-4.05
X7.8Y-4.3819
X7.8Y-5.4
X7.9Y-4.05
X7.9Y-4.3819
X7.9Y-5.4
X8.0Y-4.3819
X8.0Y-5.4
X8.1Y-4.3819
X8.1Y-5.4
X8.2Y-4.05
X8.2Y-4.3819
X8.2Y-5.4
X8.3Y-4.05
X8.3Y-4.3819
X8.3Y-5.4
X8.4Y-4.05
X8.4Y-4.3819
X8.4Y-5.4
X8.5Y-4.05
X8.5Y-4.3819
X8.5Y-5.4
X8.5Y-5.74
X8.6Y-4.05
X8.6Y-4.3819
X8.6Y-5.4
X8.6Y-5.74
X8.7Y-4.05
X8.7Y-4.3819
X8.7Y-5.4
X8.7Y-5.74
X8.8Y-4.3819
X8.8Y-5.4
X8.9Y-4.3819
X8.9Y-5.4
X9.0Y-4.3819
X9.0Y-5.4
T3
X5.6494Y-5.3529
X5.6494Y-5.7529
X5.8094Y-5.2129
X5.9094Y-5.2129
X6.0094Y-5.2129
T4
X5.3894Y-5.1291
X5.3894Y-5.3291
X5.3894Y-5.5491
X5.3894Y-5.7491
T0
M30
